<?xml version="1.0" standalone="no"?>
<!DOCTYPE svg PUBLIC "-//W3C//DTD SVG 1.1//EN" "http://www.w3.org/Graphics/SVG/1.1/DTD/svg11.dtd">
<svg width="100%" height="100%" viewBox="0 0 900 600" version="1.1" xmlns="http://www.w3.org/2000/svg" xmlns:xlink="http://www.w3.org/1999/xlink" xml:space="preserve" style="fill-rule:evenodd;clip-rule:evenodd;stroke-linejoin:round;stroke-miterlimit:1.41421;">
    <clipPath id="tag1">
        <rect x="0" y="9.09495e-13" width="900" height="600"/>
    </clipPath>
    <g clip-path="url(#tag1)">
        <path d="M1499.97,225.045C1459.83,203.073 1408.7,219.13 1386.31,260.115L1319.97,381.382L1253.64,260.115C1250.68,254.622 1246.87,249.129 1242.65,244.482C1236.31,236.876 1228.28,230.115 1218.99,225.045C1206.31,218.285 1192.79,214.904 1179.27,215.327C1165.75,215.327 1152.23,218.285 1139.55,225.045C1130.26,230.115 1122.23,236.876 1115.89,244.482C1111.66,249.129 1108.28,254.2 1104.9,260.115L1038.99,380.959L973.497,260.115C970.539,254.622 966.736,249.129 962.511,244.482C956.173,236.876 948.145,230.115 938.849,225.045C926.173,218.285 912.652,214.904 899.131,215.327C885.61,215.327 872.089,218.285 859.413,225.045C850.118,230.115 842.089,236.876 835.751,244.482C831.526,249.129 828.146,254.2 824.766,260.115L759.273,380.114L694.203,260.115C691.246,254.622 687.443,249.129 683.217,244.482C676.88,236.876 668.851,230.115 659.556,225.045C646.88,218.285 633.359,214.904 619.838,215.327C606.317,215.327 592.796,218.285 580.12,225.045C570.824,230.115 562.796,236.876 556.458,244.482C552.233,249.129 548.852,254.2 545.472,260.115L480.402,379.269L283.08,18.0045C268.291,-11.1502 238.291,-27.629 207.869,-27.2064C177.447,-27.629 147.447,-11.1502 131.813,17.5819L-136.917,509.409C-159.311,550.395 -144.945,602.366 -104.804,623.915C-64.6639,645.887 -13.5375,629.831 8.85667,588.845L207.869,224.2L406.882,588.845C412.797,599.831 420.825,608.704 430.121,615.887C433.924,618.845 437.726,621.38 441.952,623.915C453.783,630.676 466.881,633.633 479.98,633.633L482.515,633.633C495.613,633.633 508.712,630.253 520.543,623.915C524.768,621.38 528.571,618.845 532.374,615.887C541.669,608.704 549.697,599.831 555.613,588.845L620.26,470.536L684.908,588.845C697.584,612.507 719.978,627.718 744.485,632.366C745.33,632.366 746.175,632.788 747.02,632.788C748.71,633.211 750.4,633.211 752.09,633.633C753.358,633.633 754.625,633.633 755.893,634.056L764.344,634.056C765.611,634.056 766.879,634.056 768.146,633.633C769.837,633.633 771.527,633.211 773.217,632.788C774.062,632.788 774.907,632.366 775.752,632.366C799.836,627.718 822.23,612.507 835.329,588.845L899.976,470.536L964.624,588.845C978.99,615.464 1005.61,631.521 1033.07,633.633L1033.5,633.633C1035.61,633.633 1037.72,634.056 1039.83,634.056C1041.95,634.056 1044.06,634.056 1046.17,633.633L1046.59,633.633C1074.48,631.521 1100.68,615.464 1115.05,588.845L1179.69,470.536L1244.34,588.845C1259.97,617.577 1289.97,634.056 1319.97,633.633C1349.97,634.056 1379.97,617.577 1395.61,588.845L1531.66,339.129C1554.48,298.143 1540.11,246.594 1499.97,225.045Z" style="fill:rgb(204,255,51);"/>
    </g>
</svg>
